<svg width="5130" height="5020" viewBox="0 0 5130 5020" fill="none" xmlns="http://www.w3.org/2000/svg">
<path d="M3042.47 3516.64C3069.97 3516.64 3097.55 3517.54 3124.97 3515.81C3227.66 3509.55 3313.48 3434.35 3329.07 3337.9C3346.48 3230.6 3290.88 3133.32 3189.84 3094.13C3182.01 3091.12 3174.25 3087.96 3162.87 3083.51C3174.32 3073.11 3182.53 3066.48 3189.77 3058.94C3234.97 3011.62 3247.78 2955.94 3225.63 2894.9C3203.86 2834.92 3158.57 2798.22 3094.99 2794.98C3061.38 2793.25 3053.7 2780.29 3047.75 2751.73C3031.85 2675.1 3015.5 2598.39 2993.8 2523.26C2972.1 2448.21 2940.38 2376.02 2918.84 2300.97C2836.71 2014.18 2807.18 1724.15 2871.37 1428.99C2879.43 1391.99 2892.16 1366.07 2928.93 1346.48C3003.22 1306.84 3006.91 1244.98 2946.41 1187.18C2936.92 1178.14 2929.76 1161.04 2930.29 1148C2932.02 1100.98 2912.73 1073.78 2866.25 1065.04C2856.08 1063.15 2845.75 1061.95 2832.64 1059.99C2832.64 1045.22 2832.34 1032.63 2832.64 1020.13C2835.43 923.523 2864.67 832.196 2929.61 764.077C2994.55 695.958 3007.06 622.037 2998.92 536.738C2998.7 534.628 2998.7 532.442 2998.92 530.408C3001.79 506.973 2990.18 495.444 2968.11 490.622C2924.71 481.278 2881.32 471.934 2838.37 460.858C2788.87 448.048 2733.65 458.748 2692.51 409.919C2677.29 391.834 2667.12 379.853 2667.34 357.248C2667.95 298.548 2667.49 298.548 2725.28 297.116C2775.16 295.835 2808.76 265.618 2809.66 221.16C2810.57 175.195 2776.67 142.417 2726.04 140.834C2707.5 140.232 2688.89 140.759 2667.42 140.759C2667.42 116.495 2668.02 97.5819 2667.27 78.7437C2665.54 31.3469 2634.19 -0.0752175 2589.52 0.000135229C2544.99 0.000135229 2513.12 31.799 2511.39 78.6684C2510.63 98.4108 2511.24 118.229 2511.24 140.759C2489.24 140.759 2471.45 140.307 2453.67 140.834C2402.44 142.266 2369.14 174.065 2369.74 220.558C2370.35 265.392 2403.35 295.76 2453.37 297.041C2471.91 297.493 2490.44 297.116 2512.74 297.116C2504 343.081 2534.67 394.773 2472.58 417.078C2470.85 417.68 2469.12 419.866 2468.44 421.749C2460.08 445.109 2440.19 445.41 2419.85 449.027C2351.21 461.234 2283.02 475.627 2214.61 488.964C2188.17 494.088 2178.37 509.159 2179.96 536.21C2181.99 569.968 2181.69 604.028 2179.96 637.786C2178.68 663.858 2186.59 683.148 2204.67 702.74C2288.07 793.012 2343.45 896.698 2350.15 1022.39C2351.51 1047.7 2348.27 1062.78 2316.55 1066.02C2266.9 1071.14 2247.01 1103.47 2251.91 1153.05C2252.96 1163.67 2245.43 1178.29 2237.14 1186.05C2174.08 1244.98 2179.28 1303.3 2252.81 1348.36C2259.14 1352.21 2267.05 1354.24 2272.02 1359.29C2282.42 1369.84 2297.11 1380.69 2299.83 1393.5C2314.22 1462.82 2329.96 1532.3 2337.12 1602.53C2362.43 1851.64 2326.42 2094.73 2253.26 2332.54C2211.68 2467.8 2158.56 2599.59 2135.5 2740.28C2127.14 2791.44 2125.18 2790.69 2072.89 2793.18C2005.99 2796.34 1958.45 2829.5 1933.14 2890.83C1908.12 2951.49 1920.93 3007.18 1964.55 3055.63C1971.26 3063.01 1981.13 3067.53 1995.67 3077.71C1975.63 3083.36 1966.74 3085.85 1957.85 3088.33C1807.62 3130.83 1748.85 3310.55 1845.59 3433.07C1893.05 3493.2 1957.17 3516.86 2032.51 3516.79C2369.06 3516.34 2705.69 3516.64 3042.25 3516.56L3042.47 3516.64ZM1854.85 3373.17C1823.89 3306.7 1833.08 3242.58 1878.36 3185.39C1911.66 3143.26 1957.32 3123.82 2010.89 3119.53C2023.85 3118.47 2042.46 3109.51 2046.83 3099.26C2054.44 3081.32 2047.73 3064.45 2026.18 3053.07C1973.74 3025.41 1951.22 2973.57 1964.4 2919.99C1977.36 2867.47 2022.79 2833.19 2081.86 2831.53C2082.56 2831.51 2083.25 2831.49 2083.94 2831.47C2156.29 2829.35 2159.88 2829.24 2172.27 2754.97C2197.74 2602.68 2257.48 2460.72 2300.13 2313.63C2372.68 2063.08 2404.63 1808.09 2370.27 1547.75C2362.31 1487.45 2347.94 1427.88 2333.63 1368.6C2333.31 1367.28 2332.99 1365.96 2332.67 1364.64C2329.59 1351.9 2314.29 1342.03 2304.42 1331.03C2303.14 1329.6 2300.73 1329.07 2298.77 1328.17C2216.65 1289.96 2212.28 1255.15 2284 1200.29C2298.92 1188.84 2303.22 1178.37 2297.11 1159.98C2283.63 1119.44 2293.04 1106.4 2335.76 1101.21C2386.62 1095.03 2388.2 1094.42 2388.96 1041.75C2390.91 908.905 2341.26 794.067 2252.59 699.349C2204.89 648.41 2224.33 593.177 2221.02 538.622C2220.72 533.121 2237.07 523.099 2246.94 521.14C2316.4 507.501 2386.17 495.369 2455.86 482.86C2460 482.107 2464.52 482.71 2468.44 481.58C2475.3 479.545 2487.5 476.832 2487.65 473.969C2489.54 430.114 2571.36 446.013 2552.37 384.375C2544.61 359.207 2551.17 329.744 2551.09 302.165C2550.87 260.721 2548.83 258.611 2508.6 258.385C2489.54 258.309 2470.4 259.063 2451.41 257.933C2427.76 256.501 2409.45 245.801 2409.52 219.653C2409.67 192.15 2427.83 180.997 2453.67 180.696C2475.9 180.47 2498.13 180.169 2520.35 180.696C2541.9 181.148 2551.32 170.749 2551.02 149.801C2550.79 128.627 2550.64 107.453 2551.24 86.279C2552.07 55.8365 2566.84 37.2243 2590.27 38.656C2620.1 40.5398 2628.39 61.0358 2628.47 87.1832C2628.47 92.4579 2628.47 97.8079 2628.47 103.083C2628.62 191.095 2621.91 179.942 2707.58 180.621C2714.96 180.621 2722.42 180.47 2729.8 180.847C2753.31 181.902 2768.75 194.033 2769.88 217.468C2771.09 243.013 2754.59 256.275 2730.33 257.857C2707.12 259.364 2683.77 259.063 2660.49 258.309C2639.77 257.631 2628.32 265.166 2628.54 287.245C2628.84 328.538 2628.62 369.831 2628.62 411.125C2628.62 428.983 2636.83 439.081 2655.44 438.93C2672.54 438.779 2681.43 445.938 2686.86 463.42C2689.49 471.859 2703.96 479.997 2714.36 482.032C2786.99 496.123 2859.84 508.932 2932.77 521.441C2954.62 525.209 2959.29 536.436 2961.25 558.138C2967.21 624.373 2950.48 677.195 2905.05 730.168C2826.39 821.797 2787.51 932.264 2793.39 1055.77C2794.82 1085.53 2802.58 1101.81 2837.77 1101.73C2887.87 1101.73 2895.18 1115.97 2884.03 1165.03C2881.84 1174.6 2889.83 1186.66 2893.82 1197.28C2894.73 1199.77 2898.8 1200.97 2901.36 1202.86C2968.19 1253.12 2964.72 1290.34 2887.42 1325.53C2862.56 1336.83 2850.95 1351.9 2844.17 1377.83C2788.8 1589.26 2787.14 1802.74 2817.65 2017.57C2843.04 2196.53 2893.45 2368.34 2956.66 2537.65C2985.21 2614.21 2995.23 2697.78 3013.31 2778.18C3013.37 2778.42 3013.42 2778.65 3013.47 2778.88C3024.99 2830.25 3025.01 2830.33 3078.56 2831.91C3135.29 2833.64 3182.08 2870.56 3193.99 2923.23C3206.34 2977.56 3179.59 3031.59 3125.2 3055.33C3103.95 3064.6 3095.59 3076.5 3098.45 3098.66C3101.31 3120.89 3118.12 3119.91 3133.94 3121.86C3229.47 3133.85 3298.64 3214.7 3293.06 3307.91C3287.41 3402.48 3211.92 3475.8 3115.4 3476.4C2931.19 3477.53 2746.98 3476.7 2562.77 3476.7C2380.67 3476.7 2198.57 3477.45 2016.54 3476.32C1942.25 3475.87 1886.2 3440.91 1854.63 3373.24L1854.85 3373.17Z" fill="#FFF0DC"/>
<path d="M2981.52 4682.04C2981.52 4682.04 2981.52 4681.74 2981.52 4681.59C2982.5 4516.42 2975.42 4327.21 2975.42 4162.03C2975.42 4155.7 2977.6 4147.87 2974.66 4143.27C2973.76 4141.84 2972.71 4140.41 2971.65 4139.05C2961.18 4125.94 2939.55 4127.82 2932.17 4142.89C2932.17 4142.97 2932.1 4143.04 2932.02 4143.2C2928.33 4151.03 2930.82 4161.88 2930.82 4171.45C2930.82 4302.72 2937.52 4458.09 2937.52 4589.43V4638.04C2932.32 4633.97 2910.55 4602.39 2901.36 4590.56C2792.19 4450.18 2675.26 4281.09 2565.11 4141.39C2564.2 4140.26 2563.22 4139.2 2562.24 4138.22C2543.93 4120.82 2511.99 4134.38 2511.39 4159.7C2511.39 4159.85 2511.39 4160.07 2511.39 4160.23C2510.41 4324.34 2511.84 4513.4 2511.84 4677.52C2511.84 4683.85 2509.65 4691.91 2512.74 4696.21C2514.02 4698.02 2515.38 4699.75 2516.81 4701.41C2527.89 4714.29 2549.43 4712.49 2557.19 4697.34C2557.19 4697.26 2557.27 4697.19 2557.34 4697.04C2560.73 4690.26 2558.32 4680.46 2558.32 4671.95C2558.32 4539.63 2557.27 4382.29 2557.34 4249.97C2557.34 4239.04 2558.47 4228.12 2559.45 4209.2C2571.96 4224.35 2579.27 4232.79 2586.13 4241.61C2697.33 4384.48 2816.3 4556.05 2928.33 4698.24C2929.46 4699.68 2930.66 4700.96 2932.02 4702.24C2950.03 4719.04 2981.07 4706.68 2981.52 4682.04Z" fill="#FFF0DC"/>
<path d="M2169.56 4130.76C2007.42 4127.37 1876.25 4253.29 1873.77 4414.84C1871.28 4577.08 1997.33 4709.25 2157.43 4712.11C2321.3 4715.05 2452.69 4588.61 2455.03 4425.84C2457.37 4263.68 2332.07 4134.15 2169.56 4130.76ZM2163.91 4667.2C2026.86 4667.12 1917.92 4557.56 1918.44 4420.42C1918.97 4284.03 2029.95 4173.94 2165.87 4174.99C2301.86 4176.05 2411.18 4287.5 2409.9 4423.88C2408.62 4559.22 2299.37 4667.27 2163.91 4667.2Z" fill="#FFF0DC"/>
<path d="M4462.07 4130.69C4299.63 4130.69 4171.93 4258.03 4171.85 4420.34C4171.7 4581.97 4300.16 4711.51 4461.09 4712.11C4622.77 4712.71 4752.21 4584.76 4753.04 4423.43C4753.87 4259.92 4625.48 4130.69 4462.07 4130.69ZM4461.84 4667.2C4325.4 4667.12 4216.08 4557.64 4216.15 4421.1C4216.23 4285.39 4326.75 4174.84 4462.37 4174.92C4597.83 4174.99 4708.29 4285.84 4708.06 4421.55C4707.83 4557.86 4598.21 4667.2 4461.84 4667.12V4667.2Z" fill="#FFF0DC"/>
<path d="M3814.88 4493.13C3809 4483.71 3803.8 4473.84 3797.78 4463.37C3806.29 4458.02 3811.64 4454.7 3816.91 4451.31C3888.49 4405.88 3918.85 4331.95 3897.45 4255.02C3876.81 4180.8 3811.87 4132.42 3729.06 4130.84C3684.69 4130.01 3640.24 4131.44 3595.78 4130.39C3569.94 4129.78 3559.77 4140.56 3559.85 4166.18C3560.3 4336.48 3560.07 4518.45 3560.15 4688.75C3560.15 4691.46 3559.17 4694.4 3560.15 4697.04C3560.52 4697.94 3561.05 4698.7 3561.65 4699.45C3567.61 4706.91 3575.89 4711.73 3585.69 4710.45C3593.83 4709.4 3600.91 4704.05 3603.62 4696.21C3603.62 4696.13 3603.62 4695.98 3603.7 4695.91C3607.24 4685.43 3604.6 4661.25 3604.6 4649.64C3604.6 4592.75 3604.6 4535.93 3604.6 4474.45C3645.81 4474.45 3683.56 4475.58 3721.23 4473.99C3741.8 4473.09 3753.93 4479.8 3764.7 4497.5C3804.11 4562.68 3845.02 4626.88 3885.55 4691.39C3894.44 4705.63 3906.65 4720.47 3922.77 4706.16C3929.32 4700.35 3928.95 4678.2 3923.22 4668.48C3888.41 4609.25 3851.12 4551.46 3814.73 4493.13H3814.88ZM3728.46 4427.95C3688.53 4428.41 3648.67 4428.03 3604.83 4428.03C3604.83 4346.27 3604.3 4270.32 3605.73 4194.51C3605.88 4187.73 3618.76 4175.9 3626.15 4175.52C3662.99 4173.71 3700.13 4173.11 3736.9 4175.52C3809.76 4180.19 3860.69 4237.08 3857.9 4307.84C3855.19 4376.64 3800.94 4427.2 3728.46 4428.03V4427.95Z" fill="#FFF0DC"/>
<path d="M1093.75 4180.87C1043.5 4145.91 987.291 4130.08 926.263 4130.84C786.353 4131.59 659.854 4239.87 642.601 4373.55C622.56 4528.47 711.84 4666.14 857.627 4703.07C947.209 4725.75 1029.93 4708.04 1104 4653.26C1105.28 4652.35 1106.33 4651.15 1107.24 4649.72C1115.52 4636.91 1106.18 4619.88 1091.04 4618.07C1087.27 4617.62 1083.43 4617.31 1079.66 4617.24C1075.37 4617.16 1071.07 4622.89 1066.63 4625.83C1002.21 4668.48 931.311 4678.88 857.552 4655.82C766.086 4627.19 700.463 4549.35 686.826 4454.48C671.909 4350.64 714.251 4268.88 802.477 4211.09C881.661 4159.17 990.304 4163.54 1069.19 4218.32C1083.28 4228.04 1099.17 4247.18 1114.92 4225.25C1131.19 4202.65 1108.82 4191.42 1093.67 4180.87H1093.75Z" fill="#FFF0DC"/>
<path d="M1614.89 4180.65C1567.42 4147.94 1514.61 4131.52 1469.78 4131.21C1314.05 4126.47 1182.58 4235.5 1163.89 4373.85C1143.02 4528.4 1234.94 4668.25 1382.23 4703.89C1470.84 4725.29 1552.51 4707.36 1625.44 4653.18C1626.64 4652.28 1627.7 4651.07 1628.6 4649.72C1636.59 4637.06 1627.4 4620.18 1612.48 4618.44C1608.56 4617.99 1604.64 4617.62 1600.73 4617.47C1597.41 4617.31 1593.87 4622.06 1590.4 4624.4C1527.87 4666.52 1459.23 4678.43 1387.36 4658.38C1287.23 4630.43 1227.1 4562.68 1208.95 4460.58C1191.32 4361.27 1236.82 4265.42 1323.99 4210.71C1404.16 4160.45 1511.82 4163.77 1590.86 4218.62C1604.87 4228.34 1620.77 4247.56 1636.44 4225.25C1652.26 4202.65 1630.11 4191.27 1614.89 4180.8V4180.65Z" fill="#FFF0DC"/>
<path d="M3296.98 4164.52C3296.98 4164.52 3296.9 4164.29 3296.83 4164.14C3287.48 4141.39 3254.33 4139.43 3242.13 4160.83C3241.3 4162.26 3240.55 4163.77 3239.94 4165.27C3174.7 4330.45 3110.58 4496.15 3046.24 4661.77C3043.15 4669.61 3037.65 4678.43 3039.01 4685.66C3040.66 4694.55 3046.77 4705.7 3054.15 4709.32C3059.57 4712.03 3071.93 4706.08 3077.96 4700.58C3083.61 4695.38 3085.34 4685.73 3088.36 4677.82C3141.62 4540.83 3194.74 4403.76 3248.01 4266.77C3253.28 4253.29 3258.85 4239.87 3267.9 4217.42C3276.26 4237.24 3281.01 4247.71 3285.15 4258.41C3339.24 4397.36 3393.27 4536.31 3447.44 4675.26C3450.9 4684.08 3453.01 4694.63 3459.19 4700.88C3464.84 4706.53 3476.59 4711.43 3483.22 4709.24C3489.85 4707.06 3496.11 4696.13 3497.54 4688.15C3498.82 4680.69 3494.07 4671.95 3491.06 4664.11C3426.57 4497.43 3362.3 4330.75 3296.75 4164.52H3296.98Z" fill="#FFF0DC"/>
<path d="M373.026 4131.14C370.163 4129.1 364.739 4130.69 360.52 4130.69C253.609 4130.69 146.624 4131.44 39.7131 4130.16C8.97355 4129.78 -0.142914 4140.86 0.0831127 4171.15C1.28859 4337.38 0.685863 4503.61 0.685863 4669.91C0.685863 4677.3 -1.34841 4685.81 1.58993 4691.84C5.20635 4699.37 13.4187 4710.3 18.8433 4709.92C27.131 4709.32 37.0007 4701.63 41.9733 4694.1C45.9664 4688 44.1582 4677.75 44.2336 4669.31C44.3843 4603.68 45.1377 4537.97 43.8569 4472.34C43.4048 4449.81 51.2404 4443.25 73.0896 4443.55C140.822 4444.61 208.63 4443.93 276.363 4443.93C292.938 4443.93 310.945 4443.17 311.246 4421.4C311.472 4399.17 293.164 4398.87 276.739 4398.79C211.116 4398.72 145.418 4398.79 79.7951 4398.64C68.6444 4398.64 57.5691 4397.44 46.3432 4396.76V4174.54C60.8088 4174.54 73.165 4174.54 85.5964 4174.54C180.904 4174.54 276.212 4175.07 371.444 4173.56C373.102 4173.56 374.759 4173.19 376.417 4172.51C391.033 4166.86 393.068 4146.51 380.711 4136.87C378.15 4134.91 375.588 4132.95 372.951 4131.14H373.026Z" fill="#FFF0DC"/>
<path d="M5004 4375.88C4983.59 4370.53 4962.57 4366.54 4943.2 4358.63C4904.93 4342.96 4886.47 4312.36 4886.17 4271.45C4885.87 4232.49 4910.88 4197.68 4947.57 4183.13C4984.34 4168.59 5024.72 4177.63 5052.15 4206.87C5058.63 4213.8 5063.3 4223.52 5071.06 4227.89C5078.06 4231.81 5090.5 4233.62 5096.22 4229.78C5102.17 4225.86 5106.09 4213.65 5104.96 4205.81C5103.76 4197.22 5096.83 4188.86 5090.8 4181.7C5051.02 4134.61 4985.77 4118.1 4929.72 4140.41C4873.89 4162.56 4839.38 4215.99 4840.96 4277.85C4842.47 4338.13 4880.59 4388.09 4940.57 4406.7C4959.7 4412.66 4979.89 4415.29 4998.81 4421.7C5086.28 4451.09 5115.51 4553.49 5056.59 4622.29C5003.1 4684.68 4919.17 4680.99 4857.69 4615.28C4849.85 4606.92 4829.59 4599.68 4821.6 4603.98C4802.24 4614.38 4812.48 4631.1 4823.11 4643.84C4858.82 4686.64 4917.81 4709.09 4950.66 4709.55C5055.61 4710.22 5118.6 4649.72 5127.94 4575.72C5140.67 4474.97 5093.74 4399.47 5004 4375.81V4375.88Z" fill="#FFF0DC"/>
<path d="M1734.61 4420.72C1734.61 4505.42 1734.61 4590.11 1734.61 4674.81C1734.61 4690.71 1732.57 4710.07 1755.1 4710.83C1779.14 4711.66 1779.44 4691.91 1779.44 4674.51C1779.44 4505.11 1779.44 4335.72 1779.44 4166.33C1779.44 4149.68 1778.46 4132.04 1756.38 4132.04C1733.63 4132.04 1734.53 4150.28 1734.53 4166.63C1734.53 4251.33 1734.53 4336.02 1734.53 4420.72H1734.61Z" fill="#FFF0DC"/>
<path d="M545.108 4168.66C545.108 4151.56 546.087 4131.52 521.451 4132.12C498.471 4132.72 500.882 4152.09 500.807 4167.84C500.656 4251.4 500.807 4335.04 500.807 4418.61C500.807 4435.56 500.807 4452.44 500.807 4469.4C500.807 4540.3 499.451 4637.66 501.259 4708.49C501.259 4710.15 501.711 4711.81 502.389 4713.46C508.341 4728.16 528.683 4729.59 538.403 4717.08C540.437 4714.52 542.396 4711.88 544.279 4709.25C545.786 4707.14 544.656 4703.07 544.656 4699.9C544.656 4531.64 545.334 4336.93 545.183 4168.74L545.108 4168.66Z" fill="#FFF0DC"/>
<path d="M4075.71 4150.81C4071.72 4142.89 4061.62 4133.25 4054.32 4133.32C4047.31 4133.32 4038.19 4143.87 4034.12 4151.86C4030.66 4158.64 4032.92 4168.44 4032.92 4176.88C4032.92 4339.79 4032.92 4502.7 4032.92 4665.62C4032.92 4675.11 4031.19 4685.66 4034.73 4693.8C4037.89 4701.03 4047.08 4709.92 4053.94 4710.15C4060.87 4710.45 4071.42 4702.54 4074.58 4695.53C4078.65 4686.49 4077.67 4674.88 4077.75 4664.41C4077.97 4582.95 4077.82 4501.5 4077.82 4420.04C4077.82 4339.64 4077.82 4259.24 4077.82 4178.84C4077.82 4169.34 4079.71 4158.49 4075.86 4150.73L4075.71 4150.81Z" fill="#FFF0DC"/>
<path d="M1337.78 4884.67C1330.17 4880.9 1320.98 4879.09 1310.21 4879.09H1258.9V5018.57H1286.85V4964.99H1310.21C1321.66 4964.99 1331.15 4963.03 1338.69 4958.96C1346.22 4954.97 1351.72 4949.7 1355.26 4943.22C1358.8 4936.74 1360.54 4929.73 1360.54 4922.27C1360.54 4913.98 1358.65 4906.59 1354.81 4900.11C1351.04 4893.56 1345.32 4888.43 1337.71 4884.74L1337.78 4884.67ZM1326.18 4937.11C1322.49 4940.65 1316.69 4942.39 1309 4942.39H1286.85V4901.85H1309C1324.22 4901.85 1331.75 4908.63 1331.75 4922.19C1331.75 4928.6 1329.87 4933.57 1326.18 4937.04V4937.11Z" fill="#FFF0DC"/>
<path d="M1760.75 4886.25C1749.9 4880.15 1737.85 4877.06 1724.66 4877.06C1711.48 4877.06 1699.65 4880.15 1688.73 4886.25C1677.8 4892.35 1669.14 4900.87 1662.73 4911.72C1656.33 4922.57 1653.16 4934.78 1653.16 4948.42C1653.16 4962.05 1656.33 4974.41 1662.73 4985.26C1669.14 4996.11 1677.8 5004.63 1688.73 5010.73C1699.65 5016.84 1711.63 5019.92 1724.66 5019.92C1737.7 5019.92 1749.68 5016.84 1760.6 5010.73C1771.53 5004.63 1780.12 4996.11 1786.44 4985.26C1792.77 4974.41 1795.94 4962.13 1795.94 4948.42C1795.94 4934.7 1792.77 4922.64 1786.44 4911.72C1780.12 4900.87 1771.53 4892.35 1760.68 4886.25H1760.75ZM1761.88 4972.98C1758.27 4980.06 1753.29 4985.49 1746.89 4989.26C1740.49 4993.02 1733.1 4994.98 1724.74 4994.98C1716.38 4994.98 1708.92 4993.1 1702.44 4989.26C1695.96 4985.49 1690.99 4980.06 1687.37 4972.98C1683.75 4965.9 1681.94 4957.76 1681.94 4948.42C1681.94 4939.07 1683.75 4930.93 1687.37 4923.93C1690.99 4916.92 1695.96 4911.57 1702.44 4907.88C1708.92 4904.18 1716.3 4902.3 1724.74 4902.3C1733.18 4902.3 1740.49 4904.18 1746.89 4907.88C1753.29 4911.57 1758.27 4916.99 1761.88 4923.93C1765.5 4930.93 1767.31 4939.07 1767.31 4948.42C1767.31 4957.76 1765.5 4965.9 1761.88 4972.98Z" fill="#FFF0DC"/>
<path d="M2183.8 4887.68C2172.65 4881.95 2159.76 4879.09 2145.15 4879.09H2096.4V5018.57H2145.15C2159.76 5018.57 2172.65 5015.71 2183.8 5009.98C2194.95 5004.25 2203.54 4996.19 2209.57 4985.71C2215.59 4975.24 2218.68 4963.03 2218.68 4949.02C2218.68 4935 2215.67 4922.72 2209.57 4912.17C2203.54 4901.62 2194.95 4893.41 2183.8 4887.68ZM2178.07 4982.78C2170.09 4990.76 2158.78 4994.76 2144.09 4994.76H2124.35V4902.68H2144.09C2158.71 4902.68 2170.09 4906.74 2178.07 4914.96C2186.06 4923.17 2190.05 4934.47 2190.05 4949.02C2190.05 4963.56 2186.06 4974.79 2178.07 4982.78Z" fill="#FFF0DC"/>
<path d="M2561.34 4908.18C2567.67 4904.41 2574.9 4902.45 2583.04 4902.45C2590.65 4902.45 2597.35 4904.11 2603.08 4907.42C2608.88 4910.74 2613.4 4915.71 2616.56 4922.42H2648.73C2644.06 4908.33 2635.85 4897.25 2624.17 4889.26C2612.42 4881.28 2598.78 4877.28 2583.26 4877.28C2569.93 4877.28 2557.95 4880.3 2547.17 4886.4C2536.47 4892.43 2527.96 4900.94 2521.78 4911.79C2515.61 4922.64 2512.52 4934.93 2512.52 4948.64C2512.52 4962.36 2515.61 4974.64 2521.78 4985.41C2527.96 4996.19 2536.4 5004.63 2547.17 5010.66C2557.87 5016.68 2569.93 5019.77 2583.26 5019.77C2598.93 5019.77 2612.65 5015.78 2624.32 5007.87C2636 4999.96 2644.14 4988.88 2648.81 4974.64H2616.64C2613.47 4981.27 2608.95 4986.32 2603.15 4989.71C2597.35 4993.1 2590.65 4994.83 2583.11 4994.83C2574.97 4994.83 2567.74 4992.95 2561.41 4989.11C2555.08 4985.26 2550.19 4979.91 2546.65 4972.9C2543.11 4965.9 2541.37 4957.83 2541.37 4948.64C2541.37 4939.45 2543.11 4931.16 2546.65 4924.3C2550.19 4917.44 2555.08 4912.02 2561.41 4908.25L2561.34 4908.18Z" fill="#FFF0DC"/>
<path d="M2993.88 4878.86L2943.77 5018.49H2973.16L2982.35 4991.89H3037.88L3047.07 5018.49H3076.6L3026.5 4878.86H2993.88ZM2989.88 4969.59L3010.08 4911.27L3030.27 4969.59H2989.88Z" fill="#FFF0DC"/>
<path d="M3451.5 4945.25C3445.78 4942.61 3438.39 4939.9 3429.35 4937.26C3422.72 4935.3 3417.53 4933.49 3413.83 4931.99C3410.14 4930.48 3407.13 4928.45 3404.64 4925.96C3402.16 4923.47 3400.95 4920.38 3400.95 4916.69C3400.95 4911.34 3402.61 4907.27 3405.85 4904.48C3409.09 4901.7 3413.46 4900.26 3418.96 4900.26C3425.21 4900.26 3430.26 4901.85 3434.03 4904.94C3437.79 4908.03 3439.83 4912.02 3440.13 4916.84H3470.87C3469.96 4904.33 3464.99 4894.54 3455.95 4887.61C3446.98 4880.6 3435.31 4877.13 3420.92 4877.13C3411.35 4877.13 3402.83 4878.79 3395.37 4882.03C3387.92 4885.27 3382.11 4890.02 3377.97 4896.12C3373.83 4902.22 3371.79 4909.46 3371.79 4917.67C3371.79 4926.49 3373.83 4933.5 3377.9 4938.77C3381.96 4944.04 3386.79 4947.96 3392.51 4950.52C3398.16 4953.16 3405.55 4955.72 3414.59 4958.44C3421.22 4960.32 3426.49 4961.98 3430.26 4963.56C3434.03 4965.07 3437.19 4967.18 3439.75 4969.89C3442.31 4972.53 3443.52 4975.92 3443.52 4980.06C3443.52 4985.11 3441.63 4989.26 3437.94 4992.35C3434.25 4995.44 3429.13 4997.02 3422.57 4997.02C3416.02 4997.02 3411.12 4995.36 3407.5 4992.04C3403.81 4988.73 3401.78 4984.21 3401.4 4978.48H3371.42C3371.57 4987 3373.9 4994.38 3378.42 5000.63C3382.94 5006.89 3389.12 5011.71 3396.88 5015.03C3404.64 5018.34 3413.46 5020 3423.18 5020C3433.42 5020 3442.31 5018.12 3449.77 5014.27C3457.23 5010.51 3462.88 5005.38 3466.72 4998.98C3470.57 4992.57 3472.53 4985.64 3472.53 4978.18C3472.53 4969.51 3470.49 4962.51 3466.35 4957.23C3462.2 4951.88 3457.31 4947.89 3451.58 4945.25H3451.5Z" fill="#FFF0DC"/>
<path d="M3768.92 4901.7H3806.06V5018.57H3834.02V4901.7H3871.16V4879.09H3768.92V4901.7Z" fill="#FFF0DC"/>
</svg>
