<svg width="120" height="119" viewBox="0 0 120 119" fill="none" xmlns="http://www.w3.org/2000/svg">
<path d="M71.1689 83.2139C71.8122 83.2139 72.4573 83.2353 73.0988 83.1943C75.5009 83.0463 77.5083 81.2668 77.8731 78.9845C78.2802 76.4454 76.9795 74.1435 74.6162 73.2163C74.4329 73.145 74.2514 73.0701 73.9852 72.9649C74.2531 72.7188 74.4452 72.5619 74.6144 72.3836C75.6718 71.2638 75.9715 69.9461 75.4533 68.5019C74.944 67.0825 73.8848 66.2142 72.3973 66.1375C71.6113 66.0965 71.4315 65.7898 71.2923 65.114C70.9204 63.3006 70.538 61.4855 70.0304 59.7078C69.5229 57.9318 68.7809 56.2237 68.2769 54.4477C66.3559 47.6614 65.665 40.7983 67.1666 33.8141C67.3551 32.9386 67.653 32.3252 68.513 31.8616C70.2507 30.9237 70.3371 29.4598 68.9219 28.0922C68.6998 27.8782 68.5324 27.4735 68.5447 27.165C68.5853 26.0524 68.1341 25.4087 67.0467 25.2019C66.8088 25.1573 66.5674 25.1288 66.2607 25.0824C66.2607 24.7329 66.2536 24.4351 66.2607 24.1392C66.3259 21.8533 67.0097 19.6922 68.5289 18.0803C70.0481 16.4684 70.3406 14.7192 70.1503 12.7008C70.145 12.6509 70.145 12.5991 70.1503 12.551C70.2173 11.9965 69.9458 11.7237 69.4295 11.6095C68.4143 11.3884 67.3992 11.1673 66.3946 10.9052C65.2368 10.6021 63.9449 10.8553 62.9827 9.69988C62.6266 9.27195 62.3887 8.98844 62.394 8.45352C62.4081 7.06451 62.3975 7.06451 63.7493 7.03063C64.916 7.00032 65.702 6.28531 65.7232 5.2333C65.7443 4.14563 64.9512 3.37 63.7669 3.33255C63.3334 3.31829 62.8981 3.33077 62.3958 3.33077C62.3958 2.75662 62.4099 2.30907 62.3923 1.86331C62.3517 0.741758 61.6186 -0.00177987 60.5735 3.19991e-06C59.5319 3.19991e-06 58.7864 0.752458 58.7459 1.86153C58.7282 2.32869 58.7423 2.79763 58.7423 3.33077C58.2277 3.33077 57.8118 3.32007 57.3959 3.33255C56.1975 3.36643 55.4185 4.11888 55.4326 5.21904C55.4467 6.27996 56.2186 6.99854 57.3888 7.02885C57.8224 7.03955 58.2559 7.03063 58.7776 7.03063C58.5732 8.1183 59.2904 9.34149 57.8382 9.86928C57.7977 9.88354 57.7572 9.93525 57.7413 9.97983C57.5457 10.5326 57.0804 10.5397 56.6046 10.6253C54.999 10.9142 53.4041 11.2547 51.8038 11.5703C51.1852 11.6916 50.9561 12.0482 50.9931 12.6883C51.0407 13.4871 51.0337 14.2931 50.9931 15.0919C50.9632 15.7088 51.1482 16.1653 51.5712 16.6289C53.5222 18.765 54.8175 21.2185 54.9744 24.1926C55.0061 24.7918 54.9303 25.1484 54.1883 25.225C53.0269 25.3463 52.5617 26.1112 52.6762 27.2845C52.7009 27.5359 52.5246 27.8818 52.3308 28.0655C50.8557 29.4598 50.9773 30.8399 52.6974 31.9062C52.8454 31.9971 53.0304 32.0453 53.1468 32.1647C53.39 32.4144 53.7336 32.6711 53.7971 32.9743C54.1337 34.6147 54.502 36.2587 54.6695 37.9205C55.2616 43.8153 54.4192 49.5675 52.7079 55.1948C51.7351 58.3954 50.4926 61.514 49.9533 64.843C49.7577 66.0537 49.7119 66.0359 48.4888 66.0947C46.9238 66.1696 45.8117 66.9541 45.2195 68.4056C44.6344 69.8409 44.934 71.1586 45.9545 72.3051C46.1113 72.4799 46.3422 72.5869 46.6823 72.8276C46.2135 72.9613 46.0056 73.0201 45.7976 73.079C42.2834 74.0846 40.9087 78.3372 43.1716 81.2365C44.282 82.6594 45.7817 83.2193 47.5441 83.2175C55.4167 83.2068 63.2911 83.2139 71.1637 83.2122L71.1689 83.2139ZM43.3884 79.819C42.6641 78.2463 42.8791 76.7289 43.9383 75.3756C44.7173 74.3788 45.7853 73.9188 47.0383 73.8172C47.3415 73.7922 47.7768 73.58 47.879 73.3375C48.057 72.9132 47.9001 72.5138 47.3961 72.2445C46.1695 71.5901 45.6425 70.3634 45.9509 69.0956C46.2541 67.8528 47.3168 67.0415 48.6985 67.0023C48.7148 67.0018 48.731 67.0013 48.7471 67.0008C50.4395 66.9507 50.5236 66.9482 50.8134 65.1907C51.409 61.5871 52.8066 58.2278 53.8041 54.7473C55.5013 48.8186 56.2486 42.7847 55.4449 36.6242C55.2587 35.1974 54.9224 33.7876 54.5878 32.385C54.5804 32.3537 54.5729 32.3225 54.5655 32.2913C54.4932 31.99 54.1355 31.7564 53.9046 31.4961C53.8746 31.4622 53.8182 31.4497 53.7724 31.4283C51.8514 30.5243 51.7492 29.7005 53.427 28.4025C53.7759 28.1314 53.8764 27.8836 53.7336 27.4485C53.4182 26.4892 53.6385 26.1808 54.6377 26.0577C55.8274 25.9115 55.8644 25.8973 55.882 24.6509C55.9278 21.5074 54.7664 18.79 52.6921 16.5486C51.5765 15.3433 52.0312 14.0363 51.9536 12.7454C51.9466 12.6152 52.329 12.3781 52.5599 12.3317C54.1848 12.009 55.8168 11.7219 57.447 11.4259C57.5439 11.4081 57.6497 11.4223 57.7413 11.3956C57.9017 11.3474 58.1872 11.2832 58.1907 11.2155C58.2348 10.1777 60.1487 10.554 59.7046 9.09543C59.5231 8.49988 59.6764 7.8027 59.6747 7.1501C59.6694 6.16941 59.6218 6.11949 58.6807 6.11414C58.2348 6.11235 57.7871 6.13019 57.343 6.10344C56.7896 6.06956 56.3614 5.81636 56.3631 5.19764C56.3666 4.54682 56.7914 4.28293 57.3959 4.2758C57.9158 4.27045 58.4357 4.26331 58.9556 4.2758C59.4596 4.28649 59.6799 4.04043 59.6729 3.54474C59.6676 3.0437 59.6641 2.54266 59.6782 2.04161C59.6976 1.32125 60.043 0.880836 60.5911 0.914714C61.289 0.959291 61.4829 1.44429 61.4846 2.06301C61.4846 2.18782 61.4846 2.31442 61.4846 2.43924C61.4881 4.52186 61.3313 4.25797 63.3351 4.27401C63.5078 4.27401 63.6823 4.27045 63.855 4.27936C64.4049 4.30433 64.7662 4.5914 64.7926 5.14593C64.8208 5.75039 64.4349 6.06421 63.8674 6.10166C63.3246 6.13732 62.7782 6.13019 62.2336 6.11236C61.749 6.09631 61.4811 6.27461 61.4864 6.79705C61.4934 7.77417 61.4882 8.75129 61.4882 9.72841C61.4882 10.151 61.6802 10.3899 62.1156 10.3864C62.5156 10.3828 62.7236 10.5522 62.8505 10.9659C62.9122 11.1656 63.2505 11.3581 63.4937 11.4063C65.1927 11.7397 66.8969 12.0428 68.6029 12.3388C69.114 12.428 69.2233 12.6937 69.2691 13.2072C69.4083 14.7745 69.0171 16.0244 67.9544 17.2779C66.1144 19.4461 65.205 22.0601 65.3425 24.9825C65.376 25.6869 65.5575 26.072 66.3805 26.0702C67.5525 26.0702 67.7235 26.4072 67.4626 27.568C67.4115 27.7944 67.5984 28.0797 67.6918 28.3311C67.7129 28.39 67.8081 28.4185 67.868 28.4631C69.4312 29.6524 69.3502 30.5332 67.5419 31.3659C66.9604 31.6334 66.689 31.99 66.5303 32.6034C65.235 37.6067 65.1962 42.6581 65.91 47.7416C66.5039 51.9764 67.6829 56.0418 69.1616 60.0483C69.8295 61.8599 70.0639 63.8373 70.4869 65.7399C70.4881 65.7455 70.4894 65.751 70.4906 65.7566C70.76 66.972 70.7605 66.9739 72.0131 67.0112C73.3402 67.0522 74.4346 67.9259 74.7131 69.1723C75.0021 70.4579 74.3765 71.7363 73.104 72.298C72.607 72.5173 72.4114 72.799 72.4784 73.3233C72.5454 73.8493 72.9384 73.8261 73.3085 73.8725C75.5432 74.156 77.1611 76.0692 77.0306 78.2748C76.8985 80.5126 75.1326 82.2475 72.8749 82.2618C68.5659 82.2885 64.2569 82.2689 59.9478 82.2689C55.6881 82.2689 51.4284 82.2867 47.1705 82.26C45.4328 82.2493 44.1216 81.422 43.3831 79.8208L43.3884 79.819Z" fill="#EDDAC2"/>
<path d="M69.7432 110.791C69.7432 110.791 69.7432 110.784 69.7432 110.78C69.7661 106.872 69.6004 102.394 69.6004 98.4859C69.6004 98.3361 69.6515 98.1507 69.5828 98.0419C69.5616 98.008 69.537 97.9742 69.5123 97.9421C69.2673 97.6318 68.7615 97.6764 68.5888 98.033C68.5888 98.0348 68.5871 98.0366 68.5853 98.0401C68.4989 98.2256 68.5571 98.4823 68.5571 98.7088C68.5571 101.815 68.7139 105.492 68.7139 108.599V109.75C68.5923 109.653 68.083 108.906 67.868 108.626C65.3143 105.304 62.5791 101.303 60.0025 97.9973C59.9813 97.9706 59.9584 97.9456 59.9355 97.9225C59.5072 97.5106 58.76 97.8315 58.7459 98.4306C58.7459 98.4342 58.7459 98.4395 58.7459 98.4431C58.723 102.327 58.7564 106.8 58.7564 110.684C58.7564 110.834 58.7053 111.024 58.7776 111.126C58.8076 111.169 58.8393 111.21 58.8728 111.249C59.1318 111.554 59.6359 111.511 59.8174 111.153C59.8174 111.151 59.8192 111.149 59.8209 111.146C59.9002 110.985 59.8438 110.753 59.8438 110.552C59.8438 107.421 59.8192 103.698 59.8209 100.567C59.8209 100.308 59.8474 100.05 59.8703 99.6021C60.1628 99.9605 60.3338 100.16 60.4942 100.369C63.0954 103.75 65.8783 107.81 68.4989 111.174C68.5254 111.208 68.5536 111.238 68.5853 111.269C69.0065 111.666 69.7326 111.374 69.7432 110.791Z" fill="#EDDAC2"/>
<path d="M50.7499 97.7459C46.9573 97.6657 43.8889 100.645 43.8308 104.468C43.7726 108.307 46.7211 111.435 50.4662 111.502C54.2994 111.572 57.373 108.58 57.4276 104.728C57.4822 100.891 54.5514 97.8262 50.7499 97.7459ZM50.6177 110.44C47.412 110.438 44.8635 107.845 44.8759 104.6C44.8882 101.373 47.4842 98.7676 50.6636 98.7926C53.8447 98.8175 56.4019 101.455 56.3719 104.682C56.342 107.884 53.7865 110.441 50.6177 110.44Z" fill="#EDDAC2"/>
<path d="M104.376 97.7441C100.576 97.7441 97.5889 100.758 97.5872 104.598C97.5836 108.423 100.588 111.488 104.353 111.502C108.135 111.517 111.163 108.489 111.182 104.671C111.202 100.802 108.198 97.7441 104.376 97.7441ZM104.371 110.44C101.179 110.438 98.6217 107.847 98.6234 104.616C98.6252 101.405 101.211 98.789 104.383 98.7908C107.552 98.7926 110.135 101.415 110.13 104.627C110.125 107.852 107.561 110.44 104.371 110.438V110.44Z" fill="#EDDAC2"/>
<path d="M89.2369 106.321C89.0995 106.098 88.9779 105.864 88.8369 105.616C89.036 105.49 89.1612 105.411 89.2845 105.331C90.9588 104.256 91.669 102.507 91.1685 100.686C90.6856 98.9299 89.1665 97.7851 87.2296 97.7477C86.1915 97.7281 85.1517 97.762 84.1119 97.737C83.5074 97.7227 83.2695 97.9777 83.2713 98.584C83.2818 102.614 83.2766 106.92 83.2783 110.95C83.2783 111.014 83.2554 111.083 83.2783 111.146C83.2871 111.167 83.2995 111.185 83.3136 111.203C83.4528 111.379 83.6466 111.493 83.8758 111.463C84.0661 111.438 84.2318 111.312 84.2952 111.126C84.2952 111.124 84.2952 111.121 84.297 111.119C84.3798 110.871 84.3181 110.299 84.3181 110.024C84.3181 108.678 84.3181 107.333 84.3181 105.878C85.2821 105.878 86.1651 105.905 87.0463 105.868C87.5274 105.846 87.8112 106.005 88.0632 106.424C88.9849 107.966 89.9419 109.486 90.8901 111.012C91.098 111.349 91.3835 111.7 91.7607 111.361C91.914 111.224 91.9052 110.7 91.7713 110.47C90.957 109.068 90.0847 107.701 89.2334 106.321H89.2369ZM87.2155 104.778C86.2814 104.789 85.3491 104.78 84.3234 104.78C84.3234 102.845 84.3111 101.048 84.3446 99.2544C84.3481 99.0939 84.6495 98.814 84.8222 98.8051C85.684 98.7623 86.5528 98.748 87.4129 98.8051C89.1171 98.9156 90.3085 100.262 90.2433 101.936C90.1798 103.564 88.9109 104.761 87.2155 104.78V104.778Z" fill="#EDDAC2"/>
<path d="M25.5848 98.9317C24.4093 98.1043 23.0945 97.7299 21.667 97.7477C18.3942 97.7655 15.4352 100.328 15.0316 103.491C14.5628 107.157 16.6512 110.415 20.0614 111.288C22.1569 111.825 24.092 111.406 25.8245 110.11C25.8544 110.088 25.8791 110.06 25.9002 110.026C26.0941 109.723 25.8756 109.32 25.5213 109.277C25.4332 109.266 25.3433 109.259 25.2552 109.257C25.1548 109.256 25.0543 109.391 24.9503 109.461C23.4435 110.47 21.7851 110.716 20.0597 110.17C17.9201 109.493 16.3851 107.651 16.0661 105.406C15.7172 102.949 16.7076 101.014 18.7714 99.6467C20.6236 98.4181 23.165 98.5216 25.0102 99.8178C25.3398 100.048 25.7117 100.501 26.08 99.9819C26.4607 99.447 25.9372 99.1813 25.583 98.9317H25.5848Z" fill="#EDDAC2"/>
<path d="M37.7752 98.9263C36.6649 98.1524 35.4295 97.7637 34.3809 97.7566C30.738 97.6443 27.6626 100.224 27.2256 103.498C26.7374 107.155 28.8875 110.465 32.333 111.308C34.4055 111.814 36.316 111.39 38.0219 110.108C38.0501 110.087 38.0748 110.058 38.096 110.026C38.2828 109.726 38.0678 109.327 37.7188 109.286C37.6272 109.275 37.5355 109.266 37.4439 109.263C37.3663 109.259 37.2835 109.372 37.2024 109.427C35.7397 110.424 34.1341 110.705 32.4528 110.231C30.1106 109.569 28.7042 107.966 28.2795 105.55C27.8671 103.2 28.9315 100.932 30.9706 99.6378C32.8458 98.4484 35.3643 98.5269 37.213 99.825C37.5408 100.055 37.9127 100.51 38.2793 99.9819C38.6494 99.447 38.1312 99.1777 37.7752 98.9299V98.9263Z" fill="#EDDAC2"/>
<path d="M77.1223 98.5447C77.1223 98.5447 77.1205 98.5394 77.1188 98.5358C76.9002 97.9973 76.1248 97.951 75.8393 98.4574C75.8199 98.4912 75.8023 98.5269 75.7882 98.5626C74.2619 102.471 72.7621 106.392 71.2571 110.311C71.1848 110.497 71.0562 110.705 71.0879 110.876C71.1266 111.087 71.2694 111.351 71.4421 111.436C71.569 111.5 71.858 111.36 71.999 111.229C72.1312 111.106 72.1718 110.878 72.2422 110.691C73.4883 107.449 74.7307 104.206 75.9767 100.964C76.1001 100.645 76.2305 100.328 76.442 99.7964C76.6376 100.265 76.7487 100.513 76.8456 100.766C78.111 104.054 79.3746 107.342 80.6418 110.63C80.7229 110.839 80.7722 111.089 80.9167 111.237C81.0489 111.37 81.3238 111.486 81.4789 111.435C81.634 111.383 81.7803 111.124 81.8138 110.935C81.8437 110.759 81.7327 110.552 81.6622 110.366C80.1536 106.422 78.6503 102.478 77.117 98.5447H77.1223Z" fill="#EDDAC2"/>
<path d="M8.72577 97.7548C8.6588 97.7067 8.5319 97.7441 8.43321 97.7441C5.93238 97.7441 3.42979 97.762 0.928962 97.7317C0.209908 97.7227 -0.00334301 97.9849 0.00194416 98.7017C0.0301424 102.635 0.0160436 106.569 0.0160436 110.504C0.0160436 110.679 -0.0315418 110.88 0.0371914 111.023C0.121786 111.201 0.313888 111.459 0.44078 111.451C0.634643 111.436 0.865514 111.254 0.981832 111.076C1.07524 110.932 1.03294 110.689 1.0347 110.49C1.03823 108.936 1.05585 107.382 1.02589 105.829C1.01532 105.295 1.19861 105.14 1.7097 105.147C3.29409 105.172 4.88023 105.156 6.46462 105.156C6.85235 105.156 7.27356 105.139 7.28061 104.623C7.2859 104.097 6.85764 104.09 6.47343 104.088C4.93839 104.087 3.40159 104.088 1.86655 104.085C1.60572 104.085 1.34665 104.056 1.08405 104.04V98.7819C1.42243 98.7819 1.71146 98.7819 2.00226 98.7819C4.23168 98.7819 6.4611 98.7944 8.68876 98.7587C8.72753 98.7587 8.7663 98.7498 8.80507 98.7337C9.14698 98.6 9.19456 98.1186 8.90553 97.8904C8.84561 97.844 8.78569 97.7976 8.724 97.7548H8.72577Z" fill="#EDDAC2"/>
<path d="M117.053 103.546C116.575 103.42 116.083 103.325 115.63 103.138C114.735 102.767 114.303 102.043 114.296 101.075C114.289 100.153 114.874 99.3293 115.733 98.9852C116.593 98.641 117.537 98.855 118.179 99.5468C118.33 99.7109 118.44 99.9409 118.621 100.044C118.785 100.137 119.076 100.18 119.21 100.089C119.349 99.9962 119.441 99.7073 119.414 99.5219C119.386 99.3186 119.224 99.1207 119.083 98.9513C118.152 97.8369 116.626 97.4464 115.315 97.9742C114.009 98.4984 113.202 99.7626 113.239 101.226C113.274 102.653 114.166 103.835 115.569 104.276C116.016 104.416 116.489 104.479 116.931 104.63C118.977 105.326 119.661 107.749 118.283 109.377C117.032 110.853 115.068 110.766 113.63 109.211C113.447 109.013 112.973 108.842 112.786 108.944C112.333 109.19 112.573 109.585 112.821 109.887C113.657 110.9 115.037 111.431 115.805 111.442C118.26 111.458 119.733 110.026 119.952 108.275C120.25 105.891 119.152 104.104 117.053 103.544V103.546Z" fill="#EDDAC2"/>
<path d="M40.5756 104.607C40.5756 106.611 40.5756 108.616 40.5756 110.62C40.5756 110.996 40.5281 111.454 41.055 111.472C41.6172 111.492 41.6243 111.024 41.6243 110.613C41.6243 106.604 41.6243 102.596 41.6243 98.5875C41.6243 98.1935 41.6014 97.7762 41.085 97.7762C40.5527 97.7762 40.5739 98.2077 40.5739 98.5947C40.5739 100.599 40.5739 102.603 40.5739 104.607H40.5756Z" fill="#EDDAC2"/>
<path d="M12.7511 98.6428C12.7511 98.2381 12.774 97.7638 12.1977 97.778C11.6601 97.7923 11.7165 98.2505 11.7148 98.6232C11.7113 100.601 11.7148 102.58 11.7148 104.557C11.7148 104.958 11.7148 105.358 11.7148 105.759C11.7148 107.437 11.6831 109.741 11.7254 111.417C11.7254 111.456 11.7359 111.495 11.7518 111.534C11.891 111.882 12.3669 111.916 12.5942 111.62C12.6418 111.559 12.6876 111.497 12.7317 111.435C12.7669 111.385 12.7405 111.288 12.7405 111.213C12.7405 107.232 12.7564 102.624 12.7528 98.6446L12.7511 98.6428Z" fill="#EDDAC2"/>
<path d="M95.3383 98.2202C95.2449 98.033 95.0088 97.8048 94.8378 97.8066C94.6739 97.8066 94.4607 98.0562 94.3655 98.2452C94.2844 98.4057 94.3373 98.6375 94.3373 98.8372C94.3373 102.692 94.3373 106.547 94.3373 110.402C94.3373 110.627 94.2968 110.876 94.3796 111.069C94.4536 111.24 94.6686 111.451 94.829 111.456C94.9911 111.463 95.2379 111.276 95.3119 111.11C95.4071 110.896 95.3842 110.621 95.3859 110.374C95.3912 108.446 95.3877 106.519 95.3877 104.591C95.3877 102.689 95.3877 100.786 95.3877 98.8835C95.3877 98.6589 95.4317 98.4021 95.3419 98.2184L95.3383 98.2202Z" fill="#EDDAC2"/>
<path d="M31.2931 115.586C31.1151 115.496 30.9001 115.454 30.6481 115.454H29.4479V118.754H30.1018V117.486H30.6481C30.916 117.486 31.1381 117.44 31.3143 117.344C31.4905 117.249 31.6192 117.124 31.702 116.971C31.7849 116.818 31.8254 116.652 31.8254 116.475C31.8254 116.279 31.7813 116.104 31.6914 115.951C31.6033 115.796 31.4694 115.675 31.2914 115.587L31.2931 115.586ZM31.0217 116.827C30.9354 116.91 30.7997 116.951 30.6199 116.951H30.1018V115.992H30.6199C30.9759 115.992 31.1522 116.153 31.1522 116.473C31.1522 116.625 31.1081 116.743 31.0217 116.825V116.827Z" fill="#EDDAC2"/>
<path d="M41.1872 115.623C40.9334 115.479 40.6514 115.405 40.343 115.405C40.0346 115.405 39.7579 115.479 39.5024 115.623C39.2468 115.767 39.0441 115.969 38.8943 116.226C38.7445 116.482 38.6705 116.771 38.6705 117.094C38.6705 117.417 38.7445 117.709 38.8943 117.966C39.0441 118.223 39.2468 118.424 39.5024 118.569C39.7579 118.713 40.0381 118.786 40.343 118.786C40.6479 118.786 40.9281 118.713 41.1837 118.569C41.4392 118.424 41.6401 118.223 41.7882 117.966C41.9362 117.709 42.0102 117.418 42.0102 117.094C42.0102 116.769 41.9362 116.484 41.7882 116.226C41.6401 115.969 41.4392 115.767 41.1854 115.623H41.1872ZM41.2136 117.675C41.129 117.843 41.0127 117.971 40.8629 118.06C40.7131 118.15 40.5404 118.196 40.3448 118.196C40.1491 118.196 39.9747 118.151 39.8231 118.06C39.6715 117.971 39.5552 117.843 39.4706 117.675C39.386 117.508 39.3437 117.315 39.3437 117.094C39.3437 116.873 39.386 116.68 39.4706 116.514C39.5552 116.349 39.6715 116.222 39.8231 116.135C39.9747 116.047 40.1474 116.003 40.3448 116.003C40.5422 116.003 40.7131 116.047 40.8629 116.135C41.0127 116.222 41.129 116.35 41.2136 116.514C41.2982 116.68 41.3405 116.873 41.3405 117.094C41.3405 117.315 41.2982 117.508 41.2136 117.675Z" fill="#EDDAC2"/>
<path d="M51.083 115.657C50.8222 115.521 50.5208 115.454 50.1789 115.454H49.0386V118.754H50.1789C50.5208 118.754 50.8222 118.686 51.083 118.551C51.3438 118.415 51.5448 118.224 51.6857 117.977C51.8267 117.729 51.899 117.44 51.899 117.108C51.899 116.777 51.8285 116.486 51.6857 116.236C51.5448 115.987 51.3438 115.792 51.083 115.657ZM50.9491 117.907C50.7623 118.096 50.4979 118.191 50.1542 118.191H49.6925V116.012H50.1542C50.4961 116.012 50.7623 116.108 50.9491 116.302C51.1359 116.497 51.2293 116.764 51.2293 117.108C51.2293 117.452 51.1359 117.718 50.9491 117.907Z" fill="#EDDAC2"/>
<path d="M59.9143 116.142C60.0624 116.053 60.2316 116.006 60.4219 116.006C60.5999 116.006 60.7568 116.046 60.8907 116.124C61.0264 116.202 61.1322 116.32 61.2062 116.479H61.9587C61.8494 116.145 61.6573 115.883 61.3842 115.694C61.1092 115.505 60.7902 115.411 60.4272 115.411C60.1152 115.411 59.835 115.482 59.583 115.627C59.3327 115.769 59.1336 115.971 58.9891 116.227C58.8446 116.484 58.7723 116.775 58.7723 117.099C58.7723 117.424 58.8446 117.714 58.9891 117.969C59.1336 118.224 59.331 118.424 59.583 118.567C59.8333 118.709 60.1152 118.783 60.4272 118.783C60.7938 118.783 61.1145 118.688 61.3877 118.501C61.6609 118.314 61.8512 118.051 61.9605 117.714H61.2079C61.1339 117.871 61.0282 117.991 60.8925 118.071C60.7568 118.151 60.5999 118.192 60.4237 118.192C60.2333 118.192 60.0641 118.148 59.9161 118.057C59.7681 117.966 59.6535 117.839 59.5707 117.673C59.4878 117.508 59.4473 117.317 59.4473 117.099C59.4473 116.882 59.4878 116.686 59.5707 116.523C59.6535 116.361 59.7681 116.233 59.9161 116.144L59.9143 116.142Z" fill="#EDDAC2"/>
<path d="M70.0322 115.448L68.8602 118.752H69.5475L69.7626 118.123H71.0614L71.2765 118.752H71.9673L70.7953 115.448H70.0322ZM69.9388 117.595L70.4111 116.215L70.8834 117.595H69.9388Z" fill="#EDDAC2"/>
<path d="M80.7369 117.019C80.603 116.957 80.4303 116.892 80.2188 116.83C80.0637 116.784 79.9421 116.741 79.8558 116.705C79.7694 116.67 79.6989 116.621 79.6407 116.563C79.5826 116.504 79.5544 116.431 79.5544 116.343C79.5544 116.217 79.5932 116.12 79.6689 116.054C79.7447 115.988 79.8469 115.955 79.9756 115.955C80.1219 115.955 80.24 115.992 80.3281 116.065C80.4162 116.138 80.4638 116.233 80.4708 116.347H81.1899C81.1687 116.051 81.0524 115.819 80.8409 115.655C80.6312 115.489 80.358 115.407 80.0214 115.407C79.7976 115.407 79.5984 115.446 79.424 115.523C79.2495 115.6 79.1138 115.712 79.0169 115.857C78.9199 116.001 78.8723 116.172 78.8723 116.366C78.8723 116.575 78.9199 116.741 79.0151 116.866C79.1103 116.991 79.2231 117.083 79.357 117.144C79.4892 117.206 79.6619 117.267 79.8734 117.331C80.0285 117.376 80.1518 117.415 80.24 117.452C80.3281 117.488 80.4021 117.538 80.462 117.602C80.5219 117.665 80.5501 117.745 80.5501 117.843C80.5501 117.962 80.5061 118.06 80.4197 118.134C80.3334 118.207 80.2135 118.244 80.0602 118.244C79.9069 118.244 79.7923 118.205 79.7077 118.126C79.6214 118.048 79.5738 117.941 79.565 117.805H78.8635C78.8671 118.007 78.9217 118.182 79.0274 118.33C79.1332 118.478 79.2777 118.592 79.4592 118.67C79.6407 118.749 79.8469 118.788 80.0743 118.788C80.314 118.788 80.5219 118.743 80.6964 118.652C80.8709 118.563 81.0031 118.442 81.0929 118.29C81.1828 118.139 81.2287 117.975 81.2287 117.798C81.2287 117.593 81.1811 117.427 81.0841 117.303C80.9872 117.176 80.8727 117.081 80.7387 117.019H80.7369Z" fill="#EDDAC2"/>
<path d="M88.1619 115.988H89.0307V118.754H89.6846V115.988H90.5535V115.454H88.1619V115.988Z" fill="#EDDAC2"/>
</svg>
