<svg viewBox="12 -6 96 96" xmlns="http://www.w3.org/2000/svg">
  <rect x="12" y="-6" width="96" height="96" rx="13" fill="#15302B" />
  <path fill="#FFF0DC" d="M71.1689 83.2139C71.8122 83.2139 72.4573 83.2353 73.0988 83.1943C75.5009 83.0463 77.5083 81.2668 77.8731 78.9845C78.2802 76.4454 76.9795 74.1435 74.6162 73.2163C74.4329 73.145 74.2514 73.0701 73.9852 72.9649C74.2531 72.7188 74.4452 72.5619 74.6144 72.3836C75.6718 71.2638 75.9715 69.9461 75.4533 68.5019C74.944 67.0825 73.8848 66.2142 72.3973 66.1375C71.6113 66.0965 71.4315 65.7898 71.2923 65.114C70.9204 63.3006 70.538 61.4855 70.0304 59.7078C69.5229 57.9318 68.7809 56.2237 68.2769 54.4477C66.3559 47.6614 65.665 40.7983 67.1666 33.8141C67.3551 32.9386 67.653 32.3252 68.513 31.8616C70.2507 30.9237 70.3371 29.4598 68.9219 28.0922C68.6998 27.8782 68.5324 27.4735 68.5447 27.165C68.5853 26.0524 68.1341 25.4087 67.0467 25.2019C66.8088 25.1573 66.5674 25.1288 66.2607 25.0824C66.2607 24.7329 66.2536 24.4351 66.2607 24.1392C66.3259 21.8533 67.0097 19.6922 68.5289 18.0803C70.0481 16.4684 70.3406 14.7192 70.1503 12.7008C70.145 12.6509 70.145 12.5991 70.1503 12.551C70.2173 11.9965 69.9458 11.7237 69.4295 11.6095C68.4143 11.3884 67.3992 11.1673 66.3946 10.9052C65.2368 10.6021 63.9449 10.8553 62.9827 9.69988C62.6266 9.27195 62.3887 8.98844 62.394 8.45352C62.4081 7.06451 62.3975 7.06451 63.7493 7.03063C64.916 7.00032 65.702 6.28531 65.7232 5.2333C65.7443 4.14563 64.9512 3.37 63.7669 3.33255C63.3334 3.31829 62.8981 3.33077 62.3958 3.33077C62.3958 2.75662 62.4099 2.30907 62.3923 1.86331C62.3517 0.741758 61.6186 -0.00177987 60.5735 3.19991e-06C59.5319 3.19991e-06 58.7864 0.752458 58.7459 1.86153C58.7282 2.32869 58.7423 2.79763 58.7423 3.33077C58.2277 3.33077 57.8118 3.32007 57.3959 3.33255C56.1975 3.36643 55.4185 4.11888 55.4326 5.21904C55.4467 6.27996 56.2186 6.99854 57.3888 7.02885C57.8224 7.03955 58.2559 7.03063 58.7776 7.03063C58.5732 8.1183 59.2904 9.34149 57.8382 9.86928C57.7977 9.88354 57.7572 9.93525 57.7413 9.97983C57.5457 10.5326 57.0804 10.5397 56.6046 10.6253C54.999 10.9142 53.4041 11.2547 51.8038 11.5703C51.1852 11.6916 50.9561 12.0482 50.9931 12.6883C51.0407 13.4871 51.0337 14.2931 50.9931 15.0919C50.9632 15.7088 51.1482 16.1653 51.5712 16.6289C53.5222 18.765 54.8175 21.2185 54.9744 24.1926C55.0061 24.7918 54.9303 25.1484 54.1883 25.225C53.0269 25.3463 52.5617 26.1112 52.6762 27.2845C52.7009 27.5359 52.5246 27.8818 52.3308 28.0655C50.8557 29.4598 50.9773 30.8399 52.6974 31.9062C52.8454 31.9971 53.0304 32.0453 53.1468 32.1647C53.39 32.4144 53.7336 32.6711 53.7971 32.9743C54.1337 34.6147 54.502 36.2587 54.6695 37.9205C55.2616 43.8153 54.4192 49.5675 52.7079 55.1948C51.7351 58.3954 50.4926 61.514 49.9533 64.843C49.7577 66.0537 49.7119 66.0359 48.4888 66.0947C46.9238 66.1696 45.8117 66.9541 45.2195 68.4056C44.6344 69.8409 44.934 71.1586 45.9545 72.3051C46.1113 72.4799 46.3422 72.5869 46.6823 72.8276C46.2135 72.9613 46.0056 73.0201 45.7976 73.079C42.2834 74.0846 40.9087 78.3372 43.1716 81.2365C44.282 82.6594 45.7817 83.2193 47.5441 83.2175C55.4167 83.2068 63.2911 83.2139 71.1637 83.2122L71.1689 83.2139ZM43.3884 79.819C42.6641 78.2463 42.8791 76.7289 43.9383 75.3756C44.7173 74.3788 45.7853 73.9188 47.0383 73.8172C47.3415 73.7922 47.7768 73.58 47.879 73.3375C48.057 72.9132 47.9001 72.5138 47.3961 72.2445C46.1695 71.5901 45.6425 70.3634 45.9509 69.0956C46.2541 67.8528 47.3168 67.0415 48.6985 67.0023C48.7148 67.0018 48.731 67.0013 48.7471 67.0008C50.4395 66.9507 50.5236 66.9482 50.8134 65.1907C51.409 61.5871 52.8066 58.2278 53.8041 54.7473C55.5013 48.8186 56.2486 42.7847 55.4449 36.6242C55.2587 35.1974 54.9224 33.7876 54.5878 32.385C54.5804 32.3537 54.5729 32.3225 54.5655 32.2913C54.4932 31.99 54.1355 31.7564 53.9046 31.4961C53.8746 31.4622 53.8182 31.4497 53.7724 31.4283C51.8514 30.5243 51.7492 29.7005 53.427 28.4025C53.7759 28.1314 53.8764 27.8836 53.7336 27.4485C53.4182 26.4892 53.6385 26.1808 54.6377 26.0577C55.8274 25.9115 55.8644 25.8973 55.882 24.6509C55.9278 21.5074 54.7664 18.79 52.6921 16.5486C51.5765 15.3433 52.0312 14.0363 51.9536 12.7454C51.9466 12.6152 52.329 12.3781 52.5599 12.3317C54.1848 12.009 55.8168 11.7219 57.447 11.4259C57.5439 11.4081 57.6497 11.4223 57.7413 11.3956C57.9017 11.3474 58.1872 11.2832 58.1907 11.2155C58.2348 10.1777 60.1487 10.554 59.7046 9.09543C59.5231 8.49988 59.6764 7.8027 59.6747 7.1501C59.6694 6.16941 59.6218 6.11949 58.6807 6.11414C58.2348 6.11235 57.7871 6.13019 57.343 6.10344C56.7896 6.06956 56.3614 5.81636 56.3631 5.19764C56.3666 4.54682 56.7914 4.28293 57.3959 4.2758C57.9158 4.27045 58.4357 4.26331 58.9556 4.2758C59.4596 4.28649 59.6799 4.04043 59.6729 3.54474C59.6676 3.0437 59.6641 2.54266 59.6782 2.04161C59.6976 1.32125 60.043 0.880836 60.5911 0.914714C61.289 0.959291 61.4829 1.44429 61.4846 2.06301C61.4846 2.18782 61.4846 2.31442 61.4846 2.43924C61.4881 4.52186 61.3313 4.25797 63.3351 4.27401C63.5078 4.27401 63.6823 4.27045 63.855 4.27936C64.4049 4.30433 64.7662 4.5914 64.7926 5.14593C64.8208 5.75039 64.4349 6.06421 63.8674 6.10166C63.3246 6.13732 62.7782 6.13019 62.2336 6.11236C61.749 6.09631 61.4811 6.27461 61.4864 6.79705C61.4934 7.77417 61.4882 8.75129 61.4882 9.72841C61.4882 10.151 61.6802 10.3899 62.1156 10.3864C62.5156 10.3828 62.7236 10.5522 62.8505 10.9659C62.9122 11.1656 63.2505 11.3581 63.4937 11.4063C65.1927 11.7397 66.8969 12.0428 68.6029 12.3388C69.114 12.428 69.2233 12.6937 69.2691 13.2072C69.4083 14.7745 69.0171 16.0244 67.9544 17.2779C66.1144 19.4461 65.205 22.0601 65.3425 24.9825C65.376 25.6869 65.5575 26.072 66.3805 26.0702C67.5525 26.0702 67.7235 26.4072 67.4626 27.568C67.4115 27.7944 67.5984 28.0797 67.6918 28.3311C67.7129 28.39 67.8081 28.4185 67.868 28.4631C69.4312 29.6524 69.3502 30.5332 67.5419 31.3659C66.9604 31.6334 66.689 31.99 66.5303 32.6034C65.235 37.6067 65.1962 42.6581 65.91 47.7416C66.5039 51.9764 67.6829 56.0418 69.1616 60.0483C69.8295 61.8599 70.0639 63.8373 70.4869 65.7399C70.4881 65.7455 70.4894 65.751 70.4906 65.7566C70.76 66.972 70.7605 66.9739 72.0131 67.0112C73.3402 67.0522 74.4346 67.9259 74.7131 69.1723C75.0021 70.4579 74.3765 71.7363 73.104 72.298C72.607 72.5173 72.4114 72.799 72.4784 73.3233C72.5454 73.8493 72.9384 73.8261 73.3085 73.8725C75.5432 74.156 77.1611 76.0692 77.0306 78.2748C76.8985 80.5126 75.1326 82.2475 72.8749 82.2618C68.5659 82.2885 64.2569 82.2689 59.9478 82.2689C55.6881 82.2689 51.4284 82.2867 47.1705 82.26C45.4328 82.2493 44.1216 81.422 43.3831 79.8208L43.3884 79.819Z" />
</svg>
